<?xml version="1.0" standalone="no"?>
<!DOCTYPE svg PUBLIC "-//W3C//DTD SVG 20010904//EN"
 "http://www.w3.org/TR/2001/REC-SVG-20010904/DTD/svg10.dtd">
<svg version="1.0" xmlns="http://www.w3.org/2000/svg"
 width="1024.000000pt" height="1024.000000pt" viewBox="0 0 1024.000000 1024.000000"
 preserveAspectRatio="xMidYMid meet">

<g transform="translate(0.000000,1024.000000) scale(0.100000,-0.100000)"
fill="#00A86B" stroke="none">
<path d="M0 5120 l0 -5120 5120 0 5120 0 0 5120 0 5120 -5120 0 -5120 0 0
-5120z m5938 4363 l-3 -188 -142 -3 -142 -3 -3 63 -3 63 -415 0 -415 0 -3 -62
-3 -63 -144 0 -145 0 0 190 0 190 710 0 710 0 -2 -187z m-458 -328 l0 -105
-250 0 -250 0 0 105 0 105 250 0 250 0 0 -105z m-672 -2 c9 -41 12 -146 10
-358 l-3 -300 -145 0 -145 0 -3 339 c-1 200 2 344 7 349 5 5 65 13 133 17 68
4 125 8 128 8 3 1 11 -24 18 -55z m1075 36 l47 -11 0 -338 0 -339 -141 -3
c-77 -2 -143 -1 -145 1 -2 2 -4 144 -4 315 0 288 2 314 20 355 l20 43 78 -6
c42 -4 98 -12 125 -17z m-1414 -246 c-1 -43 -4 -67 -6 -53 -2 14 -8 34 -13 45
-20 45 -21 73 -3 78 10 3 19 5 21 6 1 0 1 -34 1 -76z m-61 -3 c1 -36 -1 -70
-5 -76 -5 -6 -75 -32 -158 -58 -276 -88 -462 -173 -731 -335 -396 -238 -764
-597 -1026 -1001 -236 -365 -380 -723 -468 -1170 -22 -110 -50 -343 -50 -420
0 -60 -12 -79 -35 -57 -9 10 -28 17 -42 17 -23 0 -25 3 -19 32 5 26 4 30 -6
20 -18 -18 -23 -362 -9 -553 21 -272 71 -540 143 -769 11 -36 24 -77 28 -92 6
-18 5 -30 -2 -34 -7 -4 -8 -2 -4 4 4 7 2 12 -4 12 -7 0 -10 6 -7 14 3 8 2 16
-2 18 -17 6 -85 246 -130 453 -50 233 -76 565 -68 865 10 347 61 641 167 970
118 364 305 709 576 1060 107 139 380 414 524 530 304 243 702 460 1060 578
149 50 195 61 235 59 30 -2 30 -2 33 -67z m1821 33 c135 -38 265 -90 430 -169
508 -245 893 -546 1233 -964 440 -543 686 -1164 738 -1868 22 -288 -3 -859
-35 -816 -8 11 -7 47 3 137 9 87 12 206 9 412 -5 298 -20 436 -72 663 -16 69
-35 89 -35 36 0 -13 -4 -24 -10 -24 -5 0 -10 5 -10 10 0 6 -4 10 -10 10 -5 0
-10 -9 -10 -20 0 -11 5 -20 10 -20 21 0 9 -28 -15 -32 -14 -3 -25 -3 -25 -1 0
21 -72 273 -117 408 -81 246 -130 352 -284 615 -250 427 -670 857 -1081 1106
-49 30 -93 54 -98 54 -6 0 -10 5 -10 10 0 5 -3 9 -7 8 -5 -1 -56 23 -114 55
-151 81 -254 128 -414 187 -77 28 -160 59 -185 69 l-45 17 -3 64 c-2 34 -1 69
2 76 6 16 33 12 155 -23z m-749 -198 l0 -125 -250 0 -250 0 0 125 0 125 250 0
250 0 0 -125z m-1095 -106 c4 -6 4 -26 1 -45 -5 -24 -12 -34 -25 -34 -48 0
-292 -89 -436 -160 -299 -147 -529 -309 -760 -537 -172 -170 -242 -248 -332
-368 -41 -55 -81 -108 -89 -118 -8 -9 -14 -21 -14 -26 0 -5 -11 -19 -25 -32
-13 -13 -25 -30 -25 -37 0 -7 -4 -11 -9 -8 -7 5 -36 -43 -31 -53 1 -2 -2 -7
-7 -10 -5 -3 -19 -27 -32 -52 -44 -83 -67 -79 403 -79 292 0 417 -3 422 -11 3
-6 -6 -23 -21 -37 -16 -14 -57 -87 -92 -161 -35 -75 -78 -165 -96 -201 l-32
-65 -402 -5 -401 -5 -26 -24 c-14 -14 -30 -41 -36 -60 -15 -54 -13 -63 11 -56
19 6 21 4 15 -16 -16 -59 -56 -273 -68 -359 -17 -131 -17 -598 0 -720 35 -247
97 -501 174 -710 41 -112 199 -431 273 -550 95 -152 230 -322 407 -512 73 -78
314 -285 420 -361 152 -107 347 -217 491 -276 15 -6 26 -15 22 -20 -13 -22
-310 128 -480 242 -174 117 -436 352 -595 533 -217 248 -301 375 -463 694 -59
118 -105 206 -101 195 3 -11 10 -37 14 -58 6 -29 4 -37 -5 -33 -9 3 -11 -3 -8
-17 9 -40 -26 32 -71 147 -48 122 -81 228 -121 383 -151 603 -90 1324 161
1898 95 216 280 516 453 733 103 129 344 373 461 466 277 219 597 398 889 497
117 39 174 48 186 28z m1941 -60 c341 -134 666 -333 922 -565 101 -91 319
-321 390 -410 185 -232 370 -558 471 -829 127 -342 173 -618 174 -1045 1 -261
1 -266 -21 -288 -12 -12 -28 -22 -36 -22 -9 0 -15 -21 -20 -72 -9 -92 -46
-266 -92 -433 -95 -345 -261 -702 -450 -965 -148 -207 -382 -459 -566 -608
-227 -184 -755 -486 -703 -402 3 5 22 14 43 20 47 15 200 97 317 169 217 133
486 363 662 563 198 225 302 380 436 648 197 394 303 785 328 1218 16 278 -4
567 -56 807 -25 118 -25 135 1 135 29 0 15 48 -23 77 l-36 28 -398 3 -399 3
-90 184 c-57 117 -103 197 -125 219 -39 39 -43 51 -19 60 9 3 193 6 409 6 377
0 394 1 400 19 7 22 -47 140 -80 173 -31 32 -75 105 -68 112 4 3 2 6 -3 6 -6
0 -34 35 -64 78 -177 256 -487 553 -775 742 -169 112 -428 239 -638 315 -69
25 -80 32 -93 63 -7 19 -14 38 -14 43 0 22 72 4 216 -52z m-846 -342 l0 -224
-250 -1 -250 -1 0 224 0 225 250 0 250 0 0 -223z m-665 131 c3 -13 4 -104 3
-202 l-3 -179 -130 -44 c-71 -24 -138 -46 -148 -49 -17 -6 -18 6 -15 227 l3
234 25 3 c14 2 34 7 45 12 24 11 67 16 152 18 57 2 63 0 68 -20z m1062 5 c3
-7 16 -13 29 -13 l24 0 0 -231 c0 -216 -1 -231 -17 -224 -42 15 -245 75 -259
75 -12 0 -14 31 -14 189 0 104 3 197 6 206 6 14 22 16 116 14 81 -2 111 -6
115 -16z m-1546 -138 l40 7 -3 -38 -3 -38 -77 -22 c-52 -14 -78 -18 -78 -10 0
6 8 60 17 120 14 91 20 109 38 116 19 7 20 3 23 -67 l3 -75 40 7z m1911 29
c-2 -44 1 -92 7 -107 10 -25 9 -28 -6 -23 -10 3 -45 14 -78 24 -53 15 -60 21
-63 45 -3 27 -3 27 38 21 52 -9 60 1 60 78 0 55 1 57 23 49 21 -8 22 -13 19
-87z m-2186 -51 c21 -32 47 -70 57 -85 l18 -27 -29 -15 -30 -15 -51 88 c-28
49 -51 91 -51 94 0 5 17 11 41 16 3 0 24 -25 45 -56z m-243 -156 c50 -78 57
-101 31 -111 -17 -7 -44 9 -44 26 0 5 -18 36 -40 68 -43 63 -47 76 -27 83 26
11 33 5 80 -66z m2915 33 c-7 -10 -14 -17 -17 -15 -4 4 18 35 25 35 2 0 -1 -9
-8 -20z m-2741 -16 c16 -26 16 -27 -7 -46 -28 -23 -42 -19 -54 15 -7 18 -6 30
4 41 18 23 37 20 57 -10z m372 1 c-3 -2 -45 -18 -94 -35 -286 -101 -549 -275
-804 -533 -58 -58 -108 -104 -113 -101 -7 5 -12 -10 -9 -28 0 -5 -5 -7 -12 -5
-6 1 -11 -4 -10 -10 2 -7 -4 -13 -13 -13 -22 0 26 60 146 184 240 247 554 451
815 527 58 17 103 24 94 14z m2465 -97 c-45 -75 -94 -126 -94 -99 0 13 80 111
91 111 6 0 7 -6 3 -12z m19 -72 c-26 -33 -48 -63 -50 -64 -1 -2 -8 0 -16 5
-12 6 -6 20 34 70 32 40 55 60 64 56 11 -4 3 -20 -32 -67z m-3236 -36 c8 0 33
19 54 42 l38 42 26 -24 c14 -13 25 -28 24 -34 0 -6 -36 -37 -80 -70 -76 -55
-81 -57 -94 -40 -7 11 -36 48 -65 84 l-52 65 23 18 c23 19 23 19 67 -32 24
-28 51 -51 59 -51z m3320 72 c9 -6 -1 -27 -35 -74 -26 -37 -51 -67 -55 -68
-23 -1 -13 35 25 89 46 64 46 65 65 53z m-763 -58 c23 -22 20 -41 -9 -60 -26
-17 -39 -13 -55 16 -8 15 -6 24 10 40 24 24 34 25 54 4z m-1830 -20 c20 -8 20
-28 0 -44 -12 -11 -18 -10 -31 3 -13 13 -14 19 -3 31 14 18 13 18 34 10z
m2610 -2 c7 -12 -54 -94 -67 -89 -21 7 -17 23 14 60 31 37 43 44 53 29z
m-1311 -36 c543 -117 1017 -452 1297 -916 81 -134 150 -285 185 -407 33 -112
33 -119 -2 -98 -22 13 -36 38 -61 108 -57 157 -184 403 -203 391 -5 -3 -6 2
-2 11 4 13 1 16 -13 13 -26 -5 -30 -34 -4 -41 21 -5 29 -37 9 -37 -7 0 -9 -12
-5 -35 6 -28 4 -35 -9 -35 -12 0 -14 -8 -11 -36 3 -19 10 -42 17 -50 6 -8 7
-14 2 -14 -13 0 -64 110 -57 122 4 6 3 8 -4 5 -5 -4 -22 14 -38 40 -33 59 -87
134 -135 190 -34 39 -38 41 -58 27 -11 -8 -21 -23 -21 -33 0 -9 34 -68 75
-130 78 -116 123 -199 168 -306 39 -95 41 -105 20 -106 -10 0 -13 -3 -5 -6 6
-2 12 -13 12 -23 0 -20 -39 -39 -85 -42 -16 -1 -37 -8 -46 -15 -14 -12 -21 1
-64 119 -102 281 -184 405 -385 578 -392 337 -947 446 -1446 285 -244 -80
-514 -256 -672 -439 -57 -66 -128 -172 -181 -268 -43 -79 -53 -107 -52 -145 0
-13 -4 -23 -10 -23 -6 0 -9 -7 -5 -15 3 -8 0 -20 -7 -28 -19 -20 -37 -55 -37
-71 0 -7 -7 -19 -15 -26 -8 -7 -15 -20 -15 -30 0 -23 -24 -29 -88 -20 -31 4
-56 2 -62 -4 -17 -17 -12 42 9 120 45 159 149 363 261 511 l67 89 -23 28 -24
27 -28 -32 c-160 -187 -252 -359 -332 -624 l-27 -90 -38 -3 c-22 -2 -59 2 -83
8 -33 8 -47 8 -52 0 -4 -6 -14 -8 -24 -4 -23 9 -15 55 31 188 73 210 152 360
289 552 283 394 754 673 1286 758 70 12 153 14 338 12 216 -4 259 -7 363 -30z
m-1393 3 c17 -30 4 -68 -24 -75 -39 -9 -60 -1 -70 28 -8 22 -6 32 9 48 24 27
71 26 85 -1z m2025 10 c4 -5 4 -21 1 -35 -5 -20 -12 -25 -34 -22 -27 3 -39 25
-28 54 6 16 52 19 61 3z m774 -64 c-18 -25 -36 -45 -40 -45 -4 0 -11 -9 -14
-21 -5 -15 -10 -18 -18 -10 -7 7 6 29 44 74 60 71 79 72 28 2z m43 -33 c-40
-50 -71 -77 -79 -69 -9 10 38 58 50 50 6 -4 7 -1 2 6 -4 8 4 24 21 42 39 40
43 18 6 -29z m-3588 6 c13 -21 -2 -51 -26 -56 -18 -3 -43 41 -34 63 8 21 45
16 60 -7z m554 6 c44 -30 16 -104 -40 -104 -47 0 -66 76 -26 104 12 9 27 16
33 16 6 0 21 -7 33 -16z m-666 -108 c7 -12 6 -22 -1 -29 -8 -8 -29 6 -76 53
-59 59 -64 66 -48 78 15 11 24 6 66 -35 27 -27 53 -56 59 -67z m3104 89 c23
-35 3 -75 -36 -75 -33 0 -50 17 -50 50 0 53 57 69 86 25z m663 -11 c-12 -13
-26 -21 -30 -18 -5 3 -9 -4 -9 -15 0 -11 -4 -23 -10 -26 -6 -4 -7 1 -3 12 4
13 -4 9 -27 -12 -21 -19 -14 -7 19 32 34 40 58 60 67 56 12 -5 11 -10 -7 -29z
m-3883 -110 c65 -56 77 -80 48 -91 -23 -9 -147 116 -132 134 6 7 13 13 16 13
2 0 33 -25 68 -56z m-58 -70 c54 -48 77 -84 56 -84 -14 0 -134 113 -134 126 0
24 14 16 78 -42z m613 36 c28 -16 25 -58 -6 -72 -19 -8 -28 -8 -40 2 -20 17
-19 57 3 69 21 13 20 13 43 1z m-657 -107 c58 -50 64 -59 52 -72 -13 -12 -23
-7 -78 40 -71 60 -79 70 -72 81 11 18 35 5 98 -49z m3600 38 c11 -13 15 -27
11 -40 -7 -22 -46 -38 -64 -26 -18 10 -13 63 7 74 24 14 26 14 46 -8z m-3096
-94 l21 -22 -70 -72 c-69 -71 -71 -72 -95 -57 -13 9 -24 19 -24 23 0 10 130
151 139 151 4 0 17 -10 29 -23z m-565 -145 c16 -14 16 -17 3 -31 -14 -13 -25
-9 -103 44 -49 33 -92 62 -96 66 -5 4 -4 16 3 28 11 21 13 20 93 -35 45 -32
90 -64 100 -72z m13 96 c45 -32 52 -42 34 -53 -11 -7 -110 51 -110 64 0 10 12
21 23 21 5 0 29 -14 53 -32z m141 -83 c0 -8 -4 -12 -9 -9 -5 3 -6 10 -3 15 9
13 12 11 12 -6z m3775 -31 c17 -36 0 -59 -43 -59 -30 0 -34 3 -37 28 -5 43 4
57 38 57 23 0 33 -6 42 -26z m-3521 -10 c13 -16 4 -44 -17 -51 -21 -7 -47 23
-40 45 9 26 38 29 57 6z m-668 -39 c39 -27 46 -42 23 -51 -10 -4 -52 14 -94
41 -1 1 0 10 4 19 9 22 23 20 67 -9z m222 5 c10 -16 -17 -48 -37 -42 -22 5
-23 10 -1 34 18 20 29 23 38 8z m1920 -25 c-10 -9 -24 -14 -30 -12 -5 2 -16
-2 -23 -10 -7 -7 -27 -13 -43 -13 -16 0 -37 -4 -47 -9 -9 -6 -57 -27 -107 -47
-49 -21 -109 -49 -131 -63 -71 -45 -128 -83 -144 -97 -59 -54 -141 -114 -149
-110 -5 3 -11 -8 -15 -24 -3 -18 -12 -30 -21 -30 -9 0 -14 -4 -11 -9 3 -5 -4
-11 -15 -14 -12 -3 -18 -10 -15 -15 3 -6 -1 -12 -9 -16 -21 -8 -19 2 11 41 14
18 30 30 36 27 7 -5 8 -2 3 5 -8 14 71 101 92 101 7 0 13 4 13 9 0 5 21 27 46
47 38 31 47 35 56 23 8 -11 9 -11 4 3 -11 36 189 140 383 198 53 15 105 28
116 29 20 0 20 0 0 -14z m215 -158 c0 -21 -6 -24 -93 -35 -245 -31 -454 -130
-623 -298 -175 -172 -295 -420 -311 -641 -7 -91 -12 -107 -36 -97 -23 9 -22
93 3 210 80 382 359 698 720 818 100 33 240 62 313 65 22 1 27 -3 27 -22z
m255 -4 c215 -41 427 -156 581 -315 132 -136 217 -283 268 -459 25 -88 51
-273 41 -290 -9 -14 -45 -11 -45 4 0 7 -5 51 -10 97 -14 109 -41 209 -81 295
-17 37 -32 74 -33 82 -5 33 -109 173 -183 247 -176 176 -404 282 -670 312 -58
6 -63 9 -63 30 0 23 2 24 58 18 31 -3 93 -12 137 -21z m20 -257 c251 -75 470
-259 550 -460 18 -46 19 -60 3 -50 -8 5 -9 2 -4 -12 11 -27 46 -210 46 -239 0
-25 -1 -25 -88 -25 -80 0 -91 -2 -111 -24 -20 -22 -21 -25 -6 -40 13 -12 37
-16 111 -16 77 0 94 -3 94 -15 0 -8 -4 -15 -9 -15 -5 0 -7 -8 -4 -18 4 -15 -2
-19 -29 -20 -55 -1 -107 -13 -118 -27 -6 -8 -17 -12 -24 -9 -8 3 -19 -16 -30
-53 -87 -276 -336 -463 -617 -463 -178 0 -332 63 -479 197 -14 13 -28 23 -31
23 -4 0 -9 9 -12 20 -6 24 -37 27 -37 4 0 -9 -9 -18 -20 -21 -11 -3 -20 -14
-20 -24 0 -15 -7 -19 -40 -19 -31 0 -40 -4 -40 -17 0 -15 -4 -13 -20 7 -57 71
-123 216 -150 330 -10 43 -15 50 -21 35 -6 -17 -8 -15 -8 10 -1 17 -4 40 -7
53 -6 22 -6 22 109 22 63 0 122 3 131 6 17 7 22 39 7 49 -9 5 -7 47 5 110 7
35 75 177 82 171 10 -10 12 -67 2 -61 -5 3 -7 0 -5 -7 3 -8 -2 -34 -10 -58
-23 -63 -30 -205 -16 -282 42 -214 227 -400 451 -452 288 -68 600 126 675 419
40 156 -1 367 -92 475 l-25 30 35 0 c26 0 39 -6 52 -26 22 -35 30 -24 12 17
-43 102 -228 231 -387 270 -77 19 -231 17 -310 -4 -240 -63 -429 -262 -477
-502 l-15 -80 -116 -3 -115 -3 7 65 c22 217 138 434 302 566 184 148 351 203
594 196 110 -3 152 -9 225 -30z m-1291 -91 c-4 -8 -11 -15 -16 -15 -6 0 -5 6
2 15 7 8 14 15 16 15 2 0 1 -7 -2 -15z m2680 -57 c18 -36 19 -41 7 -34 -9 6
-33 66 -26 66 2 0 11 -14 19 -32z m1663 -310 c-3 -8 -6 -5 -6 6 -1 11 2 17 5
13 3 -3 4 -12 1 -19z m-5997 -14 c0 -8 -7 -14 -15 -14 -8 0 -15 9 -15 20 0 13
5 18 15 14 8 -4 15 -12 15 -20z m140 -20 c0 -8 -4 -12 -10 -9 -5 3 -10 10 -10
16 0 5 5 9 10 9 6 0 10 -7 10 -16z m1114 5 c7 -7 -18 -186 -26 -195 -4 -3 -23
-1 -45 5 -72 20 -121 14 -154 -18 -29 -29 -29 -30 -29 -148 0 -79 4 -123 12
-131 8 -8 47 -12 110 -12 113 0 109 4 133 -111 21 -101 21 -99 -16 -89 -17 5
-129 12 -249 16 -255 8 -224 -14 -241 172 -8 90 -8 169 1 302 6 99 8 185 4
191 -3 6 0 15 7 21 15 10 483 7 493 -3z m1356 -27 c49 -48 59 -95 35 -158 -59
-156 -288 -125 -288 40 0 90 68 156 161 156 50 0 58 -3 92 -38z m2030 -62 c7
-156 5 -512 -3 -552 l-8 -38 -198 0 c-155 0 -208 -3 -245 -16 -26 -9 -50 -13
-54 -10 -8 9 27 177 40 194 8 8 39 11 109 10 55 -2 102 1 108 7 13 14 14 23
12 157 l-1 116 -34 21 c-41 26 -127 29 -146 6 -15 -18 -36 -19 -46 -3 -10 16
-42 196 -36 202 2 3 115 4 251 3 l247 -2 4 -95z m-4646 54 c49 -9 100 -20 113
-25 27 -10 31 -39 6 -39 -33 1 -253 37 -259 43 -3 3 -3 15 1 26 5 15 12 20 28
16 12 -2 62 -12 111 -21z m5536 -5 c0 -10 -3 -19 -7 -19 -5 0 -51 -7 -103 -15
-123 -19 -150 -19 -150 0 0 8 10 17 23 20 55 14 223 42 230 38 4 -2 7 -13 7
-24z m-4918 -266 c-3 -276 -8 -334 -28 -326 -9 3 -14 -1 -14 -12 0 -9 -13 -22
-30 -28 -16 -6 -30 -17 -30 -25 0 -7 -5 -10 -12 -6 -8 5 -9 1 -4 -12 4 -12 -3
-8 -19 11 l-26 30 27 -50 c15 -27 34 -59 43 -69 15 -18 15 -19 -1 -13 -10 4
-18 2 -18 -5 0 -7 -5 -6 -15 2 -8 7 -12 16 -9 21 3 5 1 8 -5 7 -11 -3 -163
171 -218 250 l-37 52 36 38 c19 20 70 75 114 122 83 90 236 239 244 240 3 0 4
-102 2 -227z m4378 25 c104 -106 190 -195 190 -198 0 -15 -215 -275 -350 -423
-35 -38 -35 -38 -36 -13 -1 14 2 26 8 26 5 0 6 -5 2 -12 -4 -7 -3 -8 4 -4 6 4
9 13 6 20 -3 7 1 20 8 27 8 8 17 21 20 29 4 8 57 74 118 145 62 72 123 144
136 161 l24 31 -91 94 c-162 168 -249 268 -249 289 0 11 4 20 10 20 5 0 95
-87 200 -192z m960 177 c0 -8 -2 -15 -4 -15 -2 0 -6 7 -10 15 -3 8 -1 15 4 15
6 0 10 -7 10 -15z m-5907 -48 c45 -8 67 -16 67 -25 0 -11 -8 -12 -37 -6 -21 4
-60 10 -88 13 -38 5 -51 10 -53 25 -3 16 0 18 19 12 13 -4 54 -13 92 -19z
m-28 -62 c44 -8 81 -14 83 -15 1 0 2 -9 2 -20 0 -23 -5 -23 -110 -7 -66 11
-75 15 -78 35 -4 26 -2 26 103 7z m5476 -11 c11 -14 9 -15 -27 -9 -27 4 -35 3
-25 -3 10 -7 -2 -12 -45 -17 -32 -3 -69 -8 -81 -11 -19 -4 -23 0 -23 20 0 31
9 34 106 35 63 1 85 -3 95 -15z m-5521 -104 c0 -32 -26 -43 -36 -15 -9 21 3
45 21 45 10 0 15 -10 15 -30z m5478 8 c-2 -13 -10 -23 -18 -23 -8 0 -16 10
-18 23 -3 17 2 22 18 22 16 0 21 -5 18 -22z m-1633 -116 c-25 -229 -99 -422
-226 -592 -60 -81 -160 -180 -181 -180 -7 0 -29 -17 -48 -38 -43 -44 -205
-131 -310 -165 -71 -23 -151 -39 -267 -52 l-53 -6 0 29 c0 29 0 29 78 35 159
13 363 85 498 177 25 16 47 30 50 30 14 0 186 183 221 235 102 151 167 335
188 527 5 42 11 58 23 61 29 6 33 -3 27 -61z m-3782 48 c54 0 57 -1 57 -25 0
-29 -10 -30 -182 -18 -96 6 -98 7 -98 31 l0 25 83 -6 c45 -4 108 -7 140 -7z
m1597 -2 c0 -41 32 -214 51 -273 89 -291 312 -538 593 -659 98 -42 276 -86
349 -86 46 0 47 -1 47 -30 0 -36 2 -35 -135 -15 -413 62 -760 351 -891 741
-32 97 -54 209 -54 280 0 47 2 54 20 54 11 0 20 -6 20 -12z m3950 -13 c0 -24
-2 -25 -72 -25 -40 0 -103 -3 -140 -7 l-68 -6 0 26 c0 25 3 26 63 30 34 2 97
4 140 5 76 2 77 2 77 -23z m-5618 -80 c13 -13 -5 -55 -23 -55 -14 0 -19 7 -19
30 0 22 5 30 18 30 10 0 21 -2 24 -5z m3137 -50 c20 -35 20 -95 -1 -95 -5 0
-7 -4 -4 -9 3 -5 -1 -12 -10 -15 -9 -3 -14 -11 -12 -18 2 -6 -12 -29 -32 -51
-34 -36 -41 -39 -102 -44 -59 -4 -68 -2 -94 21 l-29 26 23 18 c87 64 131 103
157 139 26 36 56 60 77 62 3 1 15 -15 27 -34z m2453 -31 c3 -3 4 -14 1 -25 -5
-17 -15 -19 -129 -19 l-124 0 0 25 0 25 123 0 c68 0 126 -3 129 -6z m-5462
-23 c0 -27 -18 -31 -151 -31 l-119 0 0 25 0 25 135 0 c126 0 135 -1 135 -19z
m5370 -86 c0 -24 -5 -35 -15 -35 -10 0 -15 11 -15 35 0 24 5 35 15 35 10 0 15
-11 15 -35z m-5490 -5 c0 -23 -4 -30 -20 -30 -16 0 -20 7 -20 30 0 23 4 30 20
30 16 0 20 -7 20 -30z m5598 -69 c8 -1 12 -10 10 -23 -3 -25 -15 -26 -199 -13
-74 6 -87 9 -84 23 2 9 4 19 4 22 1 4 177 -2 269 -9z m-5478 -14 c0 -23 -4
-24 -97 -30 -164 -11 -183 -10 -183 12 0 21 26 27 135 34 142 9 145 9 145 -16z
m4050 3 c15 -28 -36 -175 -107 -307 -124 -232 -288 -410 -513 -555 -215 -140
-417 -211 -672 -239 -99 -11 -103 -11 -119 10 -21 26 -31 26 -54 1 -17 -19
-26 -20 -89 -15 -522 47 -979 348 -1218 800 -50 96 -111 262 -101 278 8 13 23
-3 23 -25 0 -12 3 -18 7 -15 3 4 34 -51 68 -121 189 -385 504 -657 910 -785
247 -77 566 -82 815 -11 407 116 758 408 934 777 24 51 47 103 51 117 13 40
44 110 49 110 3 0 10 -9 16 -20z m1780 -204 c-15 -145 -16 -150 -30 -226 -42
-224 -122 -502 -199 -692 -89 -222 -276 -548 -426 -744 -106 -137 -360 -406
-381 -402 -7 2 -13 -1 -14 -7 -3 -17 -22 -35 -31 -29 -5 3 -9 -1 -10 -8 -2
-40 -500 -391 -529 -373 -6 4 -17 1 -25 -5 -8 -7 -21 -10 -30 -7 -8 4 -17 2
-20 -3 -9 -14 39 -12 53 2 6 6 14 9 18 6 6 -6 -50 -39 -62 -37 -4 0 -10 -4
-13 -9 -15 -23 -274 -146 -366 -173 -29 -9 -29 -8 -10 9 11 11 47 30 80 44 71
30 136 68 115 68 -8 -1 -26 -7 -40 -15 -14 -8 -29 -14 -35 -14 -5 0 15 13 45
29 31 16 63 26 74 23 11 -3 16 -1 12 5 -6 10 137 94 162 95 6 0 12 4 12 8 0 4
24 21 54 38 30 17 102 65 160 106 58 40 106 71 106 67 0 -4 6 0 13 8 7 8 53
48 102 89 204 169 357 323 516 521 29 36 56 64 61 62 5 -1 7 2 3 8 -3 5 15 40
41 77 56 81 76 103 45 51 -13 -21 -20 -38 -18 -38 16 0 37 14 37 24 0 7 14 25
30 41 17 16 30 35 30 42 0 7 5 13 11 13 5 0 7 5 4 10 -4 6 4 22 17 35 13 13
54 85 92 162 38 76 75 150 83 165 7 14 13 31 13 37 0 6 11 34 24 63 21 47 64
169 70 201 2 7 6 19 9 27 17 45 61 231 72 310 4 24 11 52 15 61 5 9 9 24 9 35
0 10 4 37 10 59 12 47 18 94 34 235 7 58 13 94 15 81 2 -14 -1 -75 -8 -135z
m-183 62 c-2 -13 -4 -5 -4 17 -1 22 1 32 4 23 2 -10 2 -28 0 -40z m-31 17 c-3
-8 -1 -15 3 -15 5 0 7 -9 4 -20 -3 -11 -9 -17 -14 -14 -13 8 -11 64 2 64 6 0
9 -7 5 -15z m-5606 -5 c0 -4 -18 -10 -40 -12 -38 -3 -55 5 -27 15 22 7 67 6
67 -3z m5394 -44 c-4 -12 -7 -22 -8 -23 -1 -1 -42 4 -91 12 -50 8 -93 15 -97
15 -5 0 -8 10 -8 23 l0 22 105 -14 c99 -13 105 -15 99 -35z m-5384 -6 c0 -11
-5 -20 -10 -20 -6 0 -67 -7 -136 -16 -69 -9 -128 -14 -131 -10 -3 3 0 12 7 21
7 8 9 16 4 16 -15 3 178 26 224 28 36 1 42 -2 42 -19z m5777 -22 c-3 -8 -6 -5
-6 6 -1 11 2 17 5 13 3 -3 4 -12 1 -19z m-157 -13 c0 -14 -2 -25 -4 -25 -2 0
-6 11 -8 25 -3 14 -1 25 3 25 5 0 9 -11 9 -25z m-13 -82 c-3 -10 -5 -2 -5 17
0 19 2 27 5 18 2 -10 2 -26 0 -35z m165 12 c-6 -34 -12 -32 -12 6 0 16 4 28 9
25 4 -3 6 -17 3 -31z m-5807 5 l20 -9 -20 0 c-11 -1 -30 -4 -42 -7 -17 -5 -23
-2 -23 10 0 18 31 21 65 6z m-87 -37 c-2 -31 -7 -39 -25 -41 -21 -3 -22 0 -20
37 2 35 5 41 25 41 21 0 23 -4 20 -37z m5689 -5 c-3 -8 -6 -5 -6 6 -1 11 2 17
5 13 3 -3 4 -12 1 -19z m190 -30 c-3 -7 -5 -2 -5 12 0 14 2 19 5 13 2 -7 2
-19 0 -25z m-160 0 c-3 -8 -6 -5 -6 6 -1 11 2 17 5 13 3 -3 4 -12 1 -19z
m-5637 8 c0 -11 -19 -15 -25 -6 -3 5 1 10 9 10 9 0 16 -2 16 -4z m-30 -27 c0
-6 -4 -7 -10 -4 -5 3 -10 11 -10 16 0 6 5 7 10 4 6 -3 10 -11 10 -16z m5817
-41 c-3 -7 -5 -2 -5 12 0 14 2 19 5 13 2 -7 2 -19 0 -25z m-1297 -8 c-6 -12
-13 -34 -15 -48 -2 -15 -2 -21 1 -14 3 6 13 12 23 12 24 0 16 -66 -11 -85 -13
-8 -18 -20 -14 -30 3 -9 2 -13 -4 -10 -6 3 -10 1 -10 -5 0 -6 -4 -9 -8 -6 -5
3 -9 -1 -9 -9 0 -8 4 -15 8 -15 5 0 6 -7 2 -16 -5 -13 -8 -13 -15 -2 -7 9 -8
7 -5 -9 3 -15 1 -20 -9 -16 -14 5 -62 -64 -56 -80 1 -5 -2 -6 -6 -3 -5 3 -17
-3 -26 -13 -13 -15 -14 -20 -4 -24 9 -4 8 -6 -3 -6 -9 -1 -19 -8 -23 -16 -7
-20 -26 -19 -26 1 0 9 -5 12 -12 8 -7 -4 -6 1 3 12 25 28 143 224 158 261 7
18 17 30 22 28 4 -3 7 3 6 14 -1 20 33 104 40 97 3 -2 -1 -14 -7 -26z m1507
-37 c-3 -10 -5 -4 -5 12 0 17 2 24 5 18 2 -7 2 -21 0 -30z m-5909 -4 c2 -14
-18 -22 -106 -43 -129 -31 -155 -32 -150 -10 2 11 23 22 58 31 30 8 78 21 105
28 61 17 89 15 93 -6z m672 10 c0 -8 4 -8 13 0 11 8 17 3 31 -25 9 -20 14 -46
11 -58 -5 -16 -4 -18 4 -6 8 12 11 11 17 -5 4 -11 18 -37 32 -57 13 -20 21
-41 18 -47 -4 -5 -1 -13 5 -17 8 -5 10 -2 5 7 -4 8 2 3 13 -11 11 -14 19 -31
16 -37 -2 -7 -1 -12 4 -10 5 1 36 -36 71 -82 120 -162 324 -354 505 -476 91
-61 284 -161 398 -206 40 -15 63 -28 51 -28 -59 -2 -299 110 -457 212 -134 88
-411 338 -459 415 -16 26 -23 30 -29 20 -7 -9 -8 -7 -7 7 2 11 -1 20 -7 20 -5
0 -8 -9 -7 -20 3 -17 1 -16 -14 5 -9 14 -28 37 -42 52 -23 25 -23 28 -8 43 22
22 20 32 -2 12 -17 -16 -20 -14 -50 28 -18 25 -32 50 -32 55 0 5 -6 15 -14 23
-8 7 -23 30 -34 50 -10 20 -22 34 -26 30 -6 -6 -10 15 -9 44 1 7 -3 10 -8 7
-5 -3 -6 9 -2 27 5 25 3 30 -7 24 -9 -5 -11 -4 -6 3 9 15 26 15 26 1z m2720 8
c0 -2 -10 -12 -22 -23 l-23 -19 19 23 c18 21 26 27 26 19z m1839 -28 c51 -13
96 -29 98 -37 13 -32 -16 -32 -135 0 -118 32 -150 48 -96 48 17 0 23 4 18 12
-5 7 -2 10 7 6 8 -2 56 -15 108 -29z m448 -41 c-3 -8 -6 -5 -6 6 -1 11 2 17 5
13 3 -3 4 -12 1 -19z m-492 -55 c-8 -44 -10 -47 -23 -39 -9 5 -8 26 4 64 2 6
9 12 15 12 8 0 9 -12 4 -37z m461 -79 c-35 -137 -73 -260 -86 -281 -10 -16
-11 -16 -5 2 30 93 76 254 91 319 10 43 20 74 22 68 1 -5 -8 -54 -22 -108z
m-481 22 c85 -27 99 -35 97 -52 -2 -10 -6 -21 -8 -24 -5 -4 -196 59 -215 71
-13 7 0 39 15 38 6 0 56 -15 111 -33z m712 -8 c-3 -8 -6 -5 -6 6 -1 11 2 17 5
13 3 -3 4 -12 1 -19z m-3822 -57 c-3 -2 -23 5 -44 17 -21 12 -42 18 -46 14 -5
-4 -5 -2 -1 5 5 9 18 7 51 -9 25 -12 42 -24 40 -27z m1049 34 c-4 -8 -12 -15
-20 -15 -8 0 -22 -4 -32 -9 -31 -17 -150 -61 -164 -60 -7 0 14 10 47 23 33 12
85 34 115 48 30 15 56 27 57 27 1 1 0 -6 -3 -14z m1230 -33 c3 -5 -1 -9 -9 -9
-8 0 -12 4 -9 9 3 4 7 8 9 8 2 0 6 -4 9 -8z m-2174 -32 c47 -16 94 -30 104
-30 11 0 16 -3 13 -7 -9 -8 -133 25 -177 48 -49 25 -38 23 60 -11z m2939 -50
c56 -22 109 -40 117 -40 15 0 17 -14 6 -42 -6 -15 -12 -14 -65 7 -41 17 -59
21 -62 12 -20 -55 -26 -67 -35 -62 -6 4 -6 15 0 31 16 42 12 52 -35 70 -25 9
-45 20 -45 25 0 8 11 39 14 39 1 0 48 -18 105 -40z m-2262 14 c-3 -3 -12 -4
-19 -1 -8 3 -5 6 6 6 11 1 17 -2 13 -5z m-448 -20 c8 -7 -54 -2 -79 6 -17 6
-9 7 25 3 28 -3 52 -7 54 -9z m408 10 c-3 -3 -12 -4 -19 -1 -8 3 -5 6 6 6 11
1 17 -2 13 -5z m-54 -11 c-7 -2 -21 -2 -30 0 -10 3 -4 5 12 5 17 0 24 -2 18
-5z m-2696 -9 c-1 -2 -45 -19 -97 -39 -91 -35 -120 -36 -107 -2 7 18 99 44
160 44 26 0 46 -2 44 -3z m2441 -1 c-15 -2 -42 -2 -60 0 -18 2 -6 4 27 4 33 0
48 -2 33 -4z m160 0 c-16 -2 -40 -2 -55 0 -16 2 -3 4 27 4 30 0 43 -2 28 -4z
m1497 -63 c-3 -5 -1 -10 4 -10 6 0 11 -5 11 -11 0 -8 -5 -8 -15 1 -13 11 -12
30 1 30 3 0 2 -4 -1 -10z m-15 -40 c0 -5 -2 -10 -4 -10 -3 0 -8 5 -11 10 -3 6
-1 10 4 10 6 0 11 -4 11 -10z m918 -46 c39 -18 72 -37 72 -42 0 -5 -7 -15 -16
-23 -12 -10 -19 -10 -32 -1 -10 7 -46 27 -82 44 -36 17 -66 32 -68 33 -1 1 0
10 4 19 8 20 19 17 122 -30z m-930 23 c13 5 14 3 5 -7 -13 -14 -33 -5 -32 13
0 9 2 9 5 0 3 -7 13 -9 22 -6z m-4584 -54 c3 -7 0 -13 -7 -13 -8 0 -9 -2 -1
-8 15 -9 49 -76 35 -68 -17 11 -13 -30 4 -44 8 -7 15 -20 15 -29 0 -13 2 -13
9 -3 6 10 11 5 20 -18 9 -26 8 -31 -2 -24 -7 5 -5 2 4 -7 23 -21 120 -215 112
-223 -4 -3 -1 -6 5 -6 15 0 43 -55 34 -65 -4 -5 -1 -5 6 -1 6 4 12 3 12 -2 0
-5 25 -48 55 -96 30 -49 53 -91 50 -96 -13 -20 -56 5 -79 46 -14 25 -21 42
-16 39 6 -3 7 1 4 9 -3 9 -12 16 -18 16 -7 0 -18 12 -24 26 -7 14 -8 23 -2 19
15 -9 12 4 -5 21 -8 9 -15 12 -15 7 -1 -18 -43 74 -44 97 -1 14 -7 24 -13 23
-7 -2 -15 7 -19 20 -4 12 -11 25 -16 28 -6 4 -11 18 -11 32 -1 14 -5 23 -8 21
-6 -3 -64 122 -64 141 -1 6 -6 20 -13 31 -6 12 -8 24 -5 28 3 3 2 6 -4 6 -6 0
-9 9 -6 20 3 11 1 20 -5 20 -5 0 -12 15 -14 33 -4 34 15 49 26 20z m5987 -69
c-25 -63 -63 -140 -49 -99 17 50 72 184 75 181 2 -2 -10 -39 -26 -82z m-2141
0 c0 -6 -221 -114 -235 -114 -5 1 44 27 110 59 139 69 125 62 125 55z m535
-61 c-89 -83 -216 -187 -252 -208 -18 -10 -30 -22 -27 -26 2 -4 -1 -11 -7 -15
-8 -4 -9 -3 -5 4 11 17 -2 15 -32 -7 -15 -10 -56 -33 -92 -51 -36 -18 -67 -36
-68 -41 -2 -5 -7 -7 -11 -4 -4 2 -43 -9 -85 -26 -43 -17 -82 -29 -88 -27 -5 2
17 14 49 27 205 84 416 214 573 354 104 92 141 109 45 20z m1075 11 c89 -50
99 -58 90 -75 -6 -10 -13 -19 -16 -19 -5 0 -190 106 -202 115 -6 5 11 35 19
35 5 0 54 -25 109 -56z m751 19 c-12 -20 -14 -14 -5 12 4 9 9 14 11 11 3 -2 0
-13 -6 -23z m-6161 -13 c0 -5 -2 -10 -4 -10 -3 0 -8 5 -11 10 -3 6 -1 10 4 10
6 0 11 -4 11 -10z m6146 -49 c-1 -16 -4 -27 -8 -24 -5 2 -8 -1 -8 -8 0 -7 -2
-10 -5 -7 -5 4 14 68 20 68 1 0 2 -13 1 -29z m-6369 -3 c-3 -8 -6 -5 -6 6 -1
11 2 17 5 13 3 -3 4 -12 1 -19z m13 -22 c0 -3 -4 -8 -10 -11 -5 -3 -10 -1 -10
4 0 6 5 11 10 11 6 0 10 -2 10 -4z m3760 -1 c0 -6 -157 -55 -173 -54 -7 0 26
13 73 29 92 30 100 32 100 25z m2325 -34 c-21 -43 -29 -39 -8 4 9 19 18 33 21
31 2 -2 -4 -18 -13 -35z m-501 -67 c13 -8 16 -17 11 -33 -3 -11 -11 -21 -16
-21 -8 0 -128 79 -152 100 -4 4 -5 14 -1 23 6 16 34 4 158 -69z m-2017 40 c-3
-3 -12 -4 -19 -1 -8 3 -5 6 6 6 11 1 17 -2 13 -5z m-44 -11 c-7 -2 -19 -2 -25
0 -7 3 -2 5 12 5 14 0 19 -2 13 -5z m967 3 c0 -2 -8 -10 -17 -17 -16 -13 -17
-12 -4 4 13 16 21 21 21 13z m-1017 -13 c-7 -2 -19 -2 -25 0 -7 3 -2 5 12 5
14 0 19 -2 13 -5z m-3438 -23 c-3 -5 -1 -10 6 -10 7 0 10 -3 6 -6 -9 -9 -28 6
-22 17 4 5 8 9 11 9 3 0 2 -4 -1 -10z m4847 -94 c7 -13 6 -22 -5 -33 -16 -16
-38 -10 -36 10 0 9 2 9 6 0 8 -21 18 -15 19 11 1 14 -4 27 -12 30 -9 3 -11 0
-7 -12 6 -16 5 -16 -13 0 -15 13 -23 15 -31 7 -8 -8 -13 -8 -18 0 -3 6 4 15
17 20 13 6 19 10 15 10 -5 1 -5 6 -2 12 8 12 50 -23 67 -55z m-4811 17 c1 -10
1 -24 0 -32 -2 -8 2 -10 10 -5 8 4 10 3 5 -4 -4 -7 -2 -12 4 -12 6 0 8 -4 5
-10 -3 -5 -1 -10 4 -10 6 0 11 -4 11 -10 0 -5 -4 -10 -10 -10 -12 0 -44 60
-36 67 3 3 1 14 -5 24 -6 13 -6 19 1 19 5 0 11 -8 11 -17z m4229 -27 c0 -2 -7
-7 -16 -10 -8 -3 -12 -2 -9 4 6 10 25 14 25 6z m-130 -71 c0 -2 -10 -9 -22
-15 -22 -11 -22 -10 -4 4 21 17 26 19 26 11z m-4045 -24 c3 -5 2 -12 -3 -15
-5 -3 -9 1 -9 9 0 17 3 19 12 6z m3922 -7 c-3 -3 -12 -4 -19 -1 -8 3 -5 6 6 6
11 1 17 -2 13 -5z m-55 -48 c10 6 11 4 1 -7 -10 -10 -13 -230 -13 -1031 l0
-1018 -25 -10 c-33 -12 -529 -425 -762 -633 l-22 -19 -203 174 c-112 96 -241
205 -288 244 -188 153 -278 232 -272 239 3 3 -2 3 -12 -1 -27 -10 -36 12 -36
89 0 48 5 73 15 83 11 11 15 38 15 95 0 78 0 79 25 79 18 0 25 -5 25 -20 0
-11 -4 -20 -10 -20 -5 0 -10 -9 -10 -20 0 -13 7 -20 20 -20 17 0 20 8 23 83 1
45 4 -4 5 -109 l2 -192 93 -90 c50 -49 117 -111 148 -138 50 -44 320 -276 420
-362 l39 -34 68 55 c117 97 600 523 624 552 15 18 18 53 20 320 l3 300 5 -275
c3 -151 7 -256 8 -232 2 34 6 42 21 42 12 0 21 -8 24 -22 2 -14 6 -4 7 22 3
42 4 41 10 -20 4 -36 7 99 7 300 0 201 -3 340 -7 310 -4 -30 -7 -44 -8 -31 -1
13 -5 21 -9 17 -5 -4 -11 -62 -14 -129 l-5 -122 -2 118 c-1 70 -6 117 -12 117
-5 0 -11 10 -11 23 -1 12 -5 4 -9 -18 -4 -22 -8 254 -9 613 l-1 652 31 0 c20
0 29 4 26 13 -2 6 -13 11 -23 9 -15 -2 -14 1 5 11 17 11 20 16 10 20 -10 3 -6
8 11 15 21 8 26 6 32 -10 5 -12 13 -16 20 -12z m48 20 c0 -3 -4 -8 -10 -11 -5
-3 -10 -1 -10 4 0 6 5 11 10 11 6 0 10 -2 10 -4z m-3890 -16 c0 -5 -5 -10 -11
-10 -5 0 -7 5 -4 10 3 6 8 10 11 10 2 0 4 -4 4 -10z m14 -41 c-3 -5 -10 -7
-15 -3 -5 3 -7 10 -3 15 3 5 10 7 15 3 5 -3 7 -10 3 -15z m5727 -2 c-10 -9
-11 -8 -5 6 3 10 9 15 12 12 3 -3 0 -11 -7 -18z m-5718 -24 c-4 -11 -3 -14 5
-9 8 5 12 -1 12 -16 l0 -22 -16 22 c-8 12 -12 27 -9 32 10 16 15 12 8 -7z
m5991 1 c3 -8 2 -12 -4 -9 -6 3 -10 10 -10 16 0 14 7 11 14 -7z m-5958 -64 c0
-12 -4 -16 -9 -11 -5 5 -6 14 -3 20 10 15 12 14 12 -9z m2239 -72 l28 -61 -4
-489 -4 -488 -22 0 c-20 0 -23 5 -23 40 0 33 -3 40 -20 40 -21 0 -23 -16 -22
-230 l0 -65 -8 60 c-4 33 -8 320 -9 638 -1 573 -1 577 19 577 13 0 20 7 20 20
0 36 17 21 45 -42z m-1840 -64 c105 -145 282 -338 441 -480 209 -187 531 -404
771 -519 46 -21 78 -42 72 -46 -8 -4 -7 -9 2 -15 7 -4 14 -3 17 4 4 13 62 -5
62 -20 0 -6 -6 -5 -15 2 -9 8 -25 10 -42 5 l-28 -7 35 -19 c26 -15 28 -18 10
-13 -53 14 -348 168 -471 247 -156 99 -325 224 -322 237 2 6 0 9 -5 8 -15 -4
-52 23 -46 34 4 7 3 8 -4 4 -17 -10 -337 301 -337 327 0 7 -8 15 -19 20 -16 6
-16 10 -5 24 12 14 12 16 0 8 -11 -6 -13 -4 -9 7 4 8 2 21 -4 29 -8 11 -9 11
-4 -3 3 -10 1 -20 -4 -23 -5 -3 -11 4 -15 15 -3 11 -12 20 -20 20 -18 0 -46
46 -39 65 4 10 2 14 -8 10 -19 -7 -52 30 -45 50 5 10 0 15 -13 15 -11 0 -20 6
-20 14 0 8 -13 28 -30 46 -16 18 -27 37 -24 42 4 6 13 0 21 -13 12 -21 13 -22
12 -4 -3 50 -2 49 86 -71z m5483 42 c-13 -20 -29 -36 -36 -36 -9 0 -8 7 4 25
9 14 21 25 26 25 5 0 7 4 4 9 -6 8 14 22 22 16 2 -2 -7 -19 -20 -39z m-51 -68
c2 -17 0 -19 -7 -8 -5 8 -6 18 -4 22 8 12 10 10 11 -14z m-24 -23 c-3 -9 -8
-14 -10 -11 -3 3 -2 9 2 15 9 16 15 13 8 -4z m-3104 -81 c2 -2 1 -11 -3 -20
-6 -15 -17 -16 -88 -10 -44 4 -90 12 -102 18 -19 11 -20 11 -2 18 18 6 187 1
195 -6z m741 -74 c0 -33 -169 -50 -205 -20 -17 14 -16 15 21 21 65 10 184 10
184 -1z m-1900 -122 c-16 -6 -20 -12 -12 -15 10 -4 10 -8 0 -21 -10 -14 -10
-15 2 -4 18 15 52 16 68 0 19 -19 14 -55 -10 -72 -12 -9 -18 -16 -12 -16 15 0
40 22 47 41 3 9 -1 28 -8 43 -8 14 -10 26 -5 26 18 0 40 -45 40 -81 0 -43 -25
-69 -73 -76 -65 -8 -125 72 -96 129 14 29 49 58 69 57 8 0 4 -5 -10 -11z m60
2 c8 -5 11 -10 5 -10 -5 0 -17 5 -25 10 -8 5 -10 10 -5 10 6 0 17 -5 25 -10z
m2750 6 c0 -2 -7 -7 -16 -10 -8 -3 -12 -2 -9 4 6 10 25 14 25 6z m76 -27 c3
-5 10 -7 15 -4 5 3 6 -2 2 -11 -4 -11 -2 -15 4 -11 7 4 8 -7 3 -34 -16 -86
-102 -128 -155 -74 -14 13 -25 31 -25 39 0 30 23 65 56 82 33 18 34 18 61 -3
23 -17 28 -28 27 -63 -1 -38 0 -41 13 -25 7 11 13 25 13 32 0 28 -31 73 -55
79 -14 3 -25 10 -25 15 0 10 58 -9 66 -22z m1188 1 c-6 -6 -10 -2 -11 12 -2
16 1 18 10 9 7 -7 8 -14 1 -21z m-4047 4 c-3 -3 -12 -4 -19 -1 -8 3 -5 6 6 6
11 1 17 -2 13 -5z m928 -1372 c11 -11 110 -100 220 -199 110 -99 206 -187 214
-196 27 -34 5 -50 340 251 l181 163 0 483 c0 475 0 484 20 489 11 3 18 1 14
-4 -3 -5 1 -9 9 -9 8 0 21 -8 28 -17 12 -14 12 -16 0 -8 -11 6 -13 3 -6 -16 5
-13 10 -224 12 -468 l4 -444 -38 -39 c-21 -22 -101 -97 -178 -166 -77 -70
-167 -152 -200 -183 -33 -31 -82 -75 -108 -99 l-48 -43 -72 69 c-40 39 -124
117 -187 174 -63 58 -157 145 -207 194 l-93 90 1 261 c1 143 4 250 6 238 2
-13 9 -23 14 -23 5 0 9 68 9 160 0 94 4 160 9 160 6 0 12 -24 14 -52 2 -29 5
19 7 107 3 88 7 -68 10 -347 5 -491 6 -508 25 -526z m2592 860 c-10 -10 -16
-21 -15 -23 2 -2 1 -3 -1 -2 -2 1 -13 -2 -25 -8 -11 -6 -5 3 14 20 40 34 51
40 27 13z m-57 -60 c0 -4 -22 -24 -49 -44 -38 -29 -48 -33 -44 -18 7 25 33 48
33 30 0 -16 15 -3 15 13 0 7 8 11 18 9 9 -2 17 2 17 8 0 5 2 10 5 10 3 0 5 -4
5 -8z m-2843 -114 c-2 -18 -4 -4 -4 32 0 36 2 50 4 33 2 -18 2 -48 0 -65z
m2699 17 c-1 -8 -6 -18 -11 -22 -4 -5 -5 -2 0 6 6 11 4 13 -11 8 -18 -7 -18
-7 0 8 24 18 25 18 22 0z m-1825 -29 c-21 -25 -95 -40 -135 -26 -20 6 -38 15
-41 20 -3 5 11 2 31 -6 41 -17 89 -13 120 11 24 18 40 19 25 1z m-1251 -51
c17 -9 30 -18 30 -21 0 -4 -59 23 -69 32 -10 9 13 3 39 -11z m2245 -65 c-27
-12 -43 -12 -25 0 8 5 22 9 30 9 10 0 8 -3 -5 -9z m-1358 -22 c-3 -8 -6 -5 -6
6 -1 11 2 17 5 13 3 -3 4 -12 1 -19z m523 -23 c-13 -14 -20 -28 -16 -32 4 -4
11 -1 16 7 7 11 10 5 9 -20 0 -19 -3 -28 -6 -20 -4 8 -13 20 -21 26 -14 10
-13 15 9 41 13 17 26 29 28 27 3 -2 -6 -15 -19 -29z m-523 -47 c-3 -7 -5 -2
-5 12 0 14 2 19 5 13 2 -7 2 -19 0 -25z m463 -23 l-23 -25 24 -1 c20 -1 21 -2
4 -6 -11 -3 -23 -10 -28 -17 -4 -6 -6 -1 -4 11 3 21 33 63 45 63 3 0 -5 -11
-18 -25z m50 -6 c0 -4 -9 -7 -19 -6 -11 0 -18 4 -16 7 6 9 35 8 35 -1z m1240
-15 c0 -2 -11 -3 -24 -2 -14 1 -23 5 -20 9 4 7 44 0 44 -7z m-1223 -241 c-1
-43 -3 -8 -3 77 0 85 2 120 3 78 2 -43 2 -113 0 -155z m-387 96 l0 -109 126 0
c84 0 123 -3 119 -10 -4 -6 -16 -8 -28 -5 -17 4 -15 2 6 -10 15 -9 27 -22 27
-30 0 -8 9 -15 20 -15 16 0 20 -7 20 -32 0 -25 3 -29 10 -18 5 8 10 11 10 6 0
-5 7 -3 15 4 8 7 13 16 10 20 -3 4 2 11 11 14 37 14 32 3 -16 -38 -32 -28 -58
-43 -69 -39 -12 4 -13 2 -3 -4 10 -7 -3 -23 -49 -64 -95 -83 -93 -82 -118 -55
-12 12 -18 26 -14 31 5 4 2 5 -5 1 -14 -8 -45 18 -34 29 4 5 3 6 -3 3 -5 -4
-44 25 -85 62 l-75 68 38 7 c27 5 37 12 37 26 0 11 3 18 8 18 32 -5 34 1 30
130 -2 71 0 127 5 124 4 -2 7 -53 7 -114z m247 -51 c-2 -29 -3 -6 -3 52 0 58
1 81 3 53 2 -29 2 -77 0 -105z m43 122 c0 -5 -7 -10 -16 -10 -8 0 -12 5 -9 10
3 6 10 10 16 10 5 0 9 -4 9 -10z m-313 -72 c-2 -13 -4 -3 -4 22 0 25 2 35 4
23 2 -13 2 -33 0 -45z m-120 -100 c-2 -24 -4 -5 -4 42 0 47 2 66 4 43 2 -24 2
-62 0 -85z m-530 30 c-3 -7 -5 -2 -5 12 0 14 2 19 5 13 2 -7 2 -19 0 -25z
m-472 -1742 c63 -26 75 -97 26 -147 -63 -62 -161 -21 -161 67 0 35 16 61 48
78 34 19 45 19 87 2z m252 -12 c17 -24 16 -69 -1 -83 -8 -7 -30 -15 -50 -18
-32 -5 -36 -9 -36 -34 0 -22 -5 -29 -20 -29 -19 0 -20 7 -20 96 l0 97 57 -6
c38 -4 62 -12 70 -23z m213 -5 c0 -14 -7 -19 -30 -19 l-30 0 0 -70 c0 -63 -2
-70 -20 -70 -18 0 -20 7 -20 70 l0 70 -29 0 c-32 0 -44 10 -33 27 7 11 135 23
155 15 4 -2 7 -12 7 -23z m305 17 c96 -40 57 -176 -50 -176 -38 0 -85 50 -85
90 0 43 16 69 53 85 40 18 41 18 82 1z m566 4 c16 -9 17 -14 8 -31 -8 -16 -14
-18 -22 -10 -13 13 -54 15 -61 2 -3 -5 15 -20 42 -32 36 -19 48 -30 50 -51 6
-50 -59 -73 -119 -42 -25 12 -28 18 -19 29 9 11 17 12 30 5 10 -6 28 -10 39
-10 39 0 31 20 -16 42 -37 18 -49 29 -51 50 -5 46 67 75 119 48z m235 -11 c13
-11 13 -14 1 -27 -12 -11 -19 -12 -37 -2 -37 20 -70 -1 -70 -44 0 -47 28 -63
70 -43 25 13 31 13 41 1 18 -22 -9 -44 -59 -51 -36 -5 -45 -2 -72 25 -47 48
-39 115 18 147 30 17 85 14 108 -6z m194 -65 c22 -47 40 -88 40 -90 0 -12 -49
-2 -54 11 -3 9 -19 15 -41 15 -24 0 -35 -4 -35 -15 0 -9 -9 -15 -25 -15 -14 0
-25 2 -25 5 0 17 81 175 90 175 6 0 29 -39 50 -86z m480 -4 c0 -79 -2 -90 -17
-90 -10 0 -35 21 -55 46 l-38 47 0 -47 c0 -42 -2 -46 -25 -46 -25 0 -25 1 -25
85 0 82 1 85 23 85 14 -1 34 -16 57 -47 l35 -47 3 40 c4 52 9 64 27 64 12 0
15 -16 15 -90z m200 64 c0 -25 -2 -26 -39 -20 -28 4 -42 2 -51 -9 -11 -13 -6
-15 34 -15 39 0 46 -3 46 -20 0 -17 -7 -20 -40 -20 -28 0 -40 -4 -40 -14 0
-11 14 -16 47 -18 36 -2 49 -7 51 -20 3 -16 -6 -18 -72 -18 l-76 0 4 58 c2 31
5 72 5 90 l1 32 65 0 c64 0 65 -1 65 -26z m180 17 c14 -4 31 -20 39 -35 12
-25 11 -31 -7 -55 -17 -24 -18 -29 -6 -46 20 -27 17 -35 -9 -35 -16 0 -28 9
-35 25 -14 31 -40 33 -44 3 -2 -15 -11 -24 -25 -26 -22 -3 -23 -1 -23 87 l0
91 43 -1 c23 -1 53 -4 67 -8z m-2060 -86 c0 -84 0 -85 -25 -85 -25 0 -25 1
-25 85 0 84 0 85 25 85 25 0 25 -1 25 -85z m399 38 l40 -48 1 48 c0 40 3 47
20 47 18 0 20 -7 20 -85 0 -77 -2 -85 -19 -85 -10 0 -26 10 -35 23 -8 12 -27
36 -41 52 l-26 30 3 -53 c3 -48 1 -52 -19 -52 -22 0 -23 4 -23 85 0 77 2 85
19 85 10 0 37 -21 60 -47z m970 0 l40 -48 1 48 c0 40 3 47 20 47 18 0 20 -7
20 -85 0 -102 -8 -106 -75 -37 l-46 47 3 -47 c3 -44 1 -48 -19 -48 -22 0 -23
3 -23 85 0 77 2 85 19 85 10 0 37 -21 60 -47z"/>
<path d="M8432 6390 c0 -14 2 -19 5 -12 2 6 2 18 0 25 -3 6 -5 1 -5 -13z"/>
<path d="M2850 6967 c-14 -7 -36 -29 -49 -50 l-24 -37 -93 0 c-51 0 -95 -4
-98 -9 -4 -5 -2 -21 4 -35 9 -25 12 -26 104 -26 l95 0 17 -32 c23 -45 42 -57
89 -58 73 0 135 62 135 136 0 88 -102 150 -180 111z"/>
<path d="M7473 6960 c-115 -70 -59 -240 80 -240 39 0 84 30 97 66 9 23 14 24
109 24 92 0 101 2 115 22 31 44 23 48 -93 48 l-108 0 -24 35 c-43 63 -116 82
-176 45z"/>
<path d="M5214 7722 c-9 -14 -37 -20 -150 -30 -231 -20 -401 -68 -620 -172
-168 -80 -304 -174 -442 -306 l-44 -43 22 -31 22 -30 77 72 c270 254 637 412
1028 443 l82 6 7 -35 c5 -29 11 -36 30 -36 24 0 46 28 42 52 -2 10 17 12 82
10 132 -5 258 -28 390 -72 259 -85 468 -210 663 -397 53 -51 60 -55 82 -45 14
7 25 16 25 22 0 28 -36 73 -112 140 -283 247 -663 404 -1026 426 -95 6 -116
10 -125 26 -15 22 -19 23 -33 0z"/>
<path d="M6790 6819 c0 -5 5 -7 10 -4 6 3 10 8 10 11 0 2 -4 4 -10 4 -5 0 -10
-5 -10 -11z"/>
<path d="M7130 7760 c-9 -6 -10 -10 -3 -10 6 0 15 5 18 10 8 12 4 12 -15 0z"/>
<path d="M7080 5015 c0 -8 2 -15 4 -15 2 0 6 7 10 15 3 8 1 15 -4 15 -6 0 -10
-7 -10 -15z"/>
<path d="M3450 4941 c0 -5 5 -13 10 -16 6 -3 10 -2 10 4 0 5 -4 13 -10 16 -5
3 -10 2 -10 -4z"/>
<path d="M2515 3920 c3 -5 8 -10 11 -10 2 0 4 5 4 10 0 6 -5 10 -11 10 -5 0
-7 -4 -4 -10z"/>
<path d="M5952 2820 c0 -14 2 -19 5 -12 2 6 2 18 0 25 -3 6 -5 1 -5 -13z"/>
<path d="M4486 3827 c3 -10 9 -15 12 -12 3 3 0 11 -7 18 -10 9 -11 8 -5 -6z"/>
<path d="M2646 3732 c-3 -5 1 -9 9 -9 8 0 12 4 9 9 -3 4 -7 8 -9 8 -2 0 -6 -4
-9 -8z"/>
<path d="M2680 3716 c0 -2 7 -7 16 -10 8 -3 12 -2 9 4 -6 10 -25 14 -25 6z"/>
<path d="M2710 3670 c0 -5 5 -10 11 -10 5 0 7 5 4 10 -3 6 -8 10 -11 10 -2 0
-4 -4 -4 -10z"/>
<path d="M6586 3353 c-15 -15 -5 -43 18 -49 26 -6 46 1 46 16 0 12 -56 41 -64
33z"/>
<path d="M4717 2753 c-4 -3 -7 -11 -7 -17 0 -6 5 -5 12 2 6 6 9 14 7 17 -3 3
-9 2 -12 -2z"/>
<path d="M5128 2213 c12 -2 30 -2 40 0 9 3 -1 5 -23 4 -22 0 -30 -2 -17 -4z"/>
<path d="M5248 2213 c6 -2 18 -2 25 0 6 3 1 5 -13 5 -14 0 -19 -2 -12 -5z"/>
<path d="M3904 489 c-37 -13 -36 -78 0 -92 24 -9 63 9 71 32 13 42 -28 77 -71
60z"/>
<path d="M4137 494 c-4 -4 -7 -16 -7 -26 0 -13 7 -18 26 -18 21 0 25 4 22 22
-3 23 -27 35 -41 22z"/>
<path d="M4680 493 c-35 -14 -42 -76 -11 -93 27 -14 37 -13 55 6 23 22 20 71
-3 84 -11 5 -21 10 -23 9 -2 0 -10 -3 -18 -6z"/>
<path d="M5670 440 c0 -11 5 -20 10 -20 6 0 10 9 10 20 0 11 -4 20 -10 20 -5
0 -10 -9 -10 -20z"/>
<path d="M6530 476 c0 -21 5 -26 26 -26 21 0 25 4 22 23 -2 14 -11 23 -25 25
-19 3 -23 -1 -23 -22z"/>
</g>
</svg>
